<svg id="Layer_2" data-name="Layer 2" xmlns="http://www.w3.org/2000/svg" xmlns:xlink="http://www.w3.org/1999/xlink" viewBox="0 0 501.86 182.42"><defs><style>.cls-1{fill:none;}.cls-2{clip-path:url(#clip-path);}.cls-3{fill:#fde930;}.cls-4{fill:#78c043;}.cls-5{fill:#3c56a5;}.cls-6{fill:#d64698;}.cls-7{fill:#6b6b6b;}.cls-8{fill:#d44895;}.cls-10,.cls-8,.cls-9{stroke:#000;stroke-miterlimit:10;stroke-width:0.5px;}.cls-9{fill:#3f57a0;}.cls-10{fill:url(#linear-gradient);}</style><clipPath id="clip-path"><rect class="cls-1" x="13.24" width="474.22" height="131.27"/></clipPath><linearGradient id="linear-gradient" x1="90.51" y1="170.53" x2="113.33" y2="170.53" gradientUnits="userSpaceOnUse"><stop offset="0" stop-color="lime"/><stop offset="0.83" stop-color="#ff0"/></linearGradient></defs><title>tlucs_logo-v3</title><g id="tlu-logo_2016-v2"><g class="cls-2"><rect class="cls-3" x="442.61" y="124.31" width="44.85" height="6.96"/><rect class="cls-3" x="442.61" y="89.51" width="44.85" height="27.84"/><rect class="cls-4" x="312.73" y="124.31" width="45.35" height="6.96"/><rect class="cls-4" x="312.73" y="89.51" width="45.35" height="27.84"/><rect class="cls-5" x="184.12" y="124.31" width="44.59" height="6.96"/><rect class="cls-5" x="184.12" y="89.51" width="44.59" height="27.84"/><rect class="cls-5" x="184.12" y="54.72" width="44.59" height="27.84"/><rect class="cls-5" x="184.12" y="19.92" width="44.59" height="27.84"/><rect class="cls-5" x="184.12" width="44.59" height="12.97"/><rect class="cls-6" x="13.24" y="124.31" width="86.09" height="6.96"/><polygon class="cls-6" points="13.24 89.51 13.24 96.47 13.24 97.42 13.24 117.35 99.33 117.35 99.33 96.47 58.6 96.47 58.6 89.51 13.24 89.51"/><rect class="cls-6" x="13.24" y="54.72" width="45.36" height="27.83"/><rect class="cls-6" x="13.24" y="33.59" width="45.36" height="14.18"/></g></g><path class="cls-7" d="M0,182.42v-26H3.07v26Z"/><path class="cls-8" d="M30,161.64v-8l5.25-.08v5.65H40v2.42h-4.7v13.53a4.89,4.89,0,0,0,.86,3.24c.58.66,1.93,1,3.81,1l0,1.62a9.25,9.25,0,0,1-3.66.71q-6.3,0-6.3-6.17v-14"/><path class="cls-9" d="M62.39,181.32V148.6h5.25v32.72Z"/><path class="cls-10" d="M108.08,181.32v-3.75H108c-1.76,2.85-3.49,4.27-7.2,4.27-6.18,0-10.27-3.21-10.27-9.62v-13h5.25v12.47q0,4,1.66,5.87a4.41,4.41,0,0,0,4.09,1.9,3.81,3.81,0,0,0,2.06-.55,6.88,6.88,0,0,0,3.95-4,8.33,8.33,0,0,0,.56-3.11V159.22h5.25v22.1Z"/><path class="cls-7" d="M137.09,182.42v-26h3.07v26Z"/><path class="cls-7" d="M183.19,180.33a15.52,15.52,0,0,1-7,1.53,13.87,13.87,0,0,1-5-.82,11.13,11.13,0,0,1-3.81-2.34,10.16,10.16,0,0,1-2.41-3.54,11.56,11.56,0,0,1-.84-4.43A12.31,12.31,0,0,1,165,166a10.9,10.9,0,0,1,2.59-3.82,12.35,12.35,0,0,1,4.16-2.58,15.57,15.57,0,0,1,5.64-1,15.84,15.84,0,0,1,5.89,1.06v2.94a12.35,12.35,0,0,0-6.14-1.6,10.68,10.68,0,0,0-4.11.75,8.58,8.58,0,0,0-4.91,5,10.21,10.21,0,0,0-.65,3.64,10.52,10.52,0,0,0,.55,3.39,7.85,7.85,0,0,0,4.53,4.83,10.33,10.33,0,0,0,4.06.73,12.13,12.13,0,0,0,6.6-1.86Z"/><path class="cls-7" d="M203.74,162a5.49,5.49,0,0,0-2.95-.71,5.6,5.6,0,0,0-4,1.55,6.81,6.81,0,0,0-1.27,1.65,10.45,10.45,0,0,0-.84,2,12.36,12.36,0,0,0-.46,2.05,14.7,14.7,0,0,0-.14,2v10.81h-3.22v-22.1h3.22v4.73h.1a9.2,9.2,0,0,1,1.16-2.17,7.19,7.19,0,0,1,1.61-1.62,7.1,7.1,0,0,1,2-1,7.43,7.43,0,0,1,2.27-.34,10.33,10.33,0,0,1,1.41.09,6.21,6.21,0,0,1,1.13.26Z"/><path class="cls-7" d="M210.73,170.76a10.67,10.67,0,0,0,.63,3.65,7.47,7.47,0,0,0,1.75,2.74,7.6,7.6,0,0,0,2.78,1.72,10.8,10.8,0,0,0,3.69.59,14.69,14.69,0,0,0,8.3-2.61v2.72a17.1,17.1,0,0,1-9,2.27,13.8,13.8,0,0,1-4.75-.78,9.64,9.64,0,0,1-5.94-5.89,13.9,13.9,0,0,1-.81-4.92,11.75,11.75,0,0,1,.89-4.6,11.07,11.07,0,0,1,2.46-3.66,11.36,11.36,0,0,1,3.73-2.42,12.48,12.48,0,0,1,4.72-.87,12.27,12.27,0,0,1,4.44.75,8.7,8.7,0,0,1,3.24,2.13,9.19,9.19,0,0,1,2,3.37,13.57,13.57,0,0,1,.69,4.45v1.38Zm15.44-2.42a7.6,7.6,0,0,0-1.93-5.35,6.87,6.87,0,0,0-5.15-1.9,9.14,9.14,0,0,0-3.06.5,7.45,7.45,0,0,0-2.48,1.43,7.76,7.76,0,0,0-1.76,2.29,10.17,10.17,0,0,0-1,3Z"/><path class="cls-7" d="M252.28,181.32v-3.93h-.1a8.75,8.75,0,0,1-3.47,3.28,10.42,10.42,0,0,1-5,1.17,11.76,11.76,0,0,1-3.39-.45,7.61,7.61,0,0,1-2.56-1.28,5.65,5.65,0,0,1-2.2-4.56,5.85,5.85,0,0,1,2.18-4.78,12.87,12.87,0,0,1,6.6-2.32l7.9-1q0-6.37-5.81-6.37a14,14,0,0,0-8.43,2.83v-3a11.64,11.64,0,0,1,1.84-.9,19,19,0,0,1,2.17-.69,20.44,20.44,0,0,1,2.35-.45,17.57,17.57,0,0,1,2.35-.16q4.34,0,6.56,2.07t2.22,6.17v14.37Zm-6.7-10.73a23.59,23.59,0,0,0-3,.54,6.62,6.62,0,0,0-2.06.87,3.37,3.37,0,0,0-1.19,1.36,4.67,4.67,0,0,0-.38,2,3.66,3.66,0,0,0,1.43,2.95,5.07,5.07,0,0,0,1.7.85,7.88,7.88,0,0,0,2.27.3,8.71,8.71,0,0,0,3.17-.56,7.63,7.63,0,0,0,2.5-1.55,7.09,7.09,0,0,0,1.65-2.37,7.49,7.49,0,0,0,.6-3v-2.18Z"/><path class="cls-7" d="M273.92,181.06a9.25,9.25,0,0,1-3.66.71q-6.3,0-6.3-6.17V153.65l3.25-.91v6.47h6.7v2.42h-6.7v13.53a4.9,4.9,0,0,0,.86,3.24,3.7,3.7,0,0,0,2.92,1,5.93,5.93,0,0,0,2.92-.78Z"/><path class="cls-7" d="M283.28,153.63a2.49,2.49,0,0,1-1.62-.56,1.76,1.76,0,0,1-.69-1.42,1.71,1.71,0,0,1,.69-1.39,2.52,2.52,0,0,1,1.63-.55,2.94,2.94,0,0,1,.91.14,2.29,2.29,0,0,1,.75.4,2,2,0,0,1,.51.62,1.64,1.64,0,0,1,.19.79,1.76,1.76,0,0,1-.18.78,1.86,1.86,0,0,1-.51.64,2.53,2.53,0,0,1-.75.42A2.72,2.72,0,0,1,283.28,153.63Zm-1.6,27.69v-22.1h3.25v22.1Z"/><path class="cls-7" d="M305,181.32h-3.1l-10-22.1h3.58l7.19,16.83a11.35,11.35,0,0,1,.84,2.7h.1a11.8,11.8,0,0,1,.79-2.61l7.44-16.92h3.48Z"/><path class="cls-7" d="M321.59,170.76a10.67,10.67,0,0,0,.63,3.65,7.47,7.47,0,0,0,1.75,2.74,7.6,7.6,0,0,0,2.78,1.72,10.8,10.8,0,0,0,3.69.59,14.7,14.7,0,0,0,8.3-2.61v2.72a17.1,17.1,0,0,1-9,2.27,13.8,13.8,0,0,1-4.75-.78,9.64,9.64,0,0,1-5.94-5.89,13.9,13.9,0,0,1-.81-4.92,11.75,11.75,0,0,1,.89-4.6,11.06,11.06,0,0,1,2.46-3.66,11.35,11.35,0,0,1,3.73-2.42,12.48,12.48,0,0,1,4.72-.87,12.28,12.28,0,0,1,4.44.75,8.7,8.7,0,0,1,3.24,2.13,9.2,9.2,0,0,1,2,3.37,13.57,13.57,0,0,1,.69,4.45v1.38ZM337,168.35A7.6,7.6,0,0,0,335.1,163a6.87,6.87,0,0,0-5.15-1.9,9.14,9.14,0,0,0-3.06.5,7.45,7.45,0,0,0-2.48,1.43,7.76,7.76,0,0,0-1.76,2.29,10.15,10.15,0,0,0-1,3Z"/><path class="cls-7" d="M365.33,177.35a10.73,10.73,0,0,0,1.6.88,15.28,15.28,0,0,0,1.78.67,12.88,12.88,0,0,0,1.84.42,11.77,11.77,0,0,0,1.76.14q5.79,0,5.79-3.69a2.58,2.58,0,0,0-.41-1.46,4.09,4.09,0,0,0-1.17-1.12,10.26,10.26,0,0,0-1.83-.94q-1.07-.43-2.41-.91a26.16,26.16,0,0,1-3.1-1.27,9.33,9.33,0,0,1-2.13-1.41,4.78,4.78,0,0,1-1.65-3.77,4.65,4.65,0,0,1,.75-2.61,6.5,6.5,0,0,1,2-1.94,10.12,10.12,0,0,1,2.93-1.22,14.19,14.19,0,0,1,3.49-.42,14.86,14.86,0,0,1,5.89,1.08v2.91a12.92,12.92,0,0,0-6.3-1.6,8.87,8.87,0,0,0-2.22.26,5.55,5.55,0,0,0-1.71.73,3.55,3.55,0,0,0-1.1,1.13,2.78,2.78,0,0,0-.39,1.46,3,3,0,0,0,1.26,2.55,8.18,8.18,0,0,0,1.68.95q1,.45,2.5,1a34.41,34.41,0,0,1,3.25,1.28,10.2,10.2,0,0,1,2.26,1.38,5.07,5.07,0,0,1,1,6.44,6.12,6.12,0,0,1-2,2,10,10,0,0,1-3,1.21,16.25,16.25,0,0,1-3.76.41,14.22,14.22,0,0,1-6.63-1.4Z"/><path class="cls-7" d="M398.5,181.06a9.25,9.25,0,0,1-3.66.71q-6.3,0-6.3-6.17V153.65l3.25-.91v6.47h6.7v2.42h-6.7v13.53a4.89,4.89,0,0,0,.86,3.24,3.7,3.7,0,0,0,2.92,1,5.93,5.93,0,0,0,2.92-.78Z"/><path class="cls-7" d="M422.28,181.32v-3.75h-.1q-2.64,4.27-8.2,4.27-9.27,0-9.27-9.62v-13H408v12.47q0,4,1.66,5.87a6.41,6.41,0,0,0,5.09,1.9,8.21,8.21,0,0,0,3.06-.55,6.88,6.88,0,0,0,3.95-4,8.33,8.33,0,0,0,.56-3.11V159.22h3.25v22.1Z"/><path class="cls-7" d="M452.54,181.32v-3.88h-.1a8.61,8.61,0,0,1-3.69,3.25,12.41,12.41,0,0,1-5.45,1.15,12.26,12.26,0,0,1-4.43-.77,9.5,9.5,0,0,1-3.42-2.21,9.9,9.9,0,0,1-2.2-3.5,13,13,0,0,1-.77-4.64,13.52,13.52,0,0,1,.85-4.89,10.94,10.94,0,0,1,2.41-3.8,10.81,10.81,0,0,1,3.76-2.46,13.13,13.13,0,0,1,4.89-.87q5.61,0,8,3.82h.1V148.6h3.25v32.72Zm0-13.34a6.29,6.29,0,0,0-.58-2.7,6.66,6.66,0,0,0-1.62-2.18,7.73,7.73,0,0,0-2.5-1.47,9.21,9.21,0,0,0-3.21-.54,9.52,9.52,0,0,0-3.55.65,7.72,7.72,0,0,0-2.78,1.87,8.58,8.58,0,0,0-1.8,3,12.44,12.44,0,0,0-.06,7.73,7.78,7.78,0,0,0,1.66,2.8,7.19,7.19,0,0,0,2.58,1.75,8.83,8.83,0,0,0,3.33.6,10,10,0,0,0,3.57-.6,7.91,7.91,0,0,0,2.69-1.66,7.3,7.3,0,0,0,1.7-2.48,7.8,7.8,0,0,0,.6-3Z"/><path class="cls-7" d="M467.17,153.63a2.49,2.49,0,0,1-1.62-.56,1.76,1.76,0,0,1-.69-1.42,1.71,1.71,0,0,1,.69-1.39,2.51,2.51,0,0,1,1.63-.55,2.94,2.94,0,0,1,.91.14,2.3,2.3,0,0,1,.75.4,2,2,0,0,1,.51.62,1.64,1.64,0,0,1,.19.79,1.76,1.76,0,0,1-.18.78,1.87,1.87,0,0,1-.51.64,2.54,2.54,0,0,1-.75.42A2.72,2.72,0,0,1,467.17,153.63Zm-1.6,27.69v-22.1h3.25v22.1Z"/><path class="cls-7" d="M489.24,181.84a15.4,15.4,0,0,1-5.19-.82,11.3,11.3,0,0,1-3.92-2.32,10,10,0,0,1-2.49-3.59,12.07,12.07,0,0,1-.86-4.64,12.68,12.68,0,0,1,.91-4.94,10.23,10.23,0,0,1,2.6-3.7,11.4,11.4,0,0,1,4.08-2.32,16.74,16.74,0,0,1,5.33-.8,15.36,15.36,0,0,1,5.08.79,10.55,10.55,0,0,1,3.83,2.28,9.88,9.88,0,0,1,2.41,3.63,13.22,13.22,0,0,1,.84,4.86A12.27,12.27,0,0,1,501,175a10.42,10.42,0,0,1-2.5,3.66,11.23,11.23,0,0,1-4,2.37A15.5,15.5,0,0,1,489.24,181.84Zm.25-20.74a11.27,11.27,0,0,0-3.86.63,8.18,8.18,0,0,0-3,1.82,8,8,0,0,0-1.89,2.93,11,11,0,0,0-.66,3.94,10,10,0,0,0,.66,3.73,8,8,0,0,0,4.8,4.67,12.22,12.22,0,0,0,7.72,0,7.67,7.67,0,0,0,2.84-1.79,7.57,7.57,0,0,0,1.76-2.88,11.73,11.73,0,0,0,.6-3.88q0-4.47-2.34-6.83A9,9,0,0,0,489.5,161.1Z"/></svg>