<svg id="Layer_1" data-name="Layer 1" xmlns="http://www.w3.org/2000/svg" viewBox="0 0 31.9 32"><defs><style>.cls-1{fill:#c22e3b;}</style></defs><path class="cls-1" d="M26.88,0H5.3A5.34,5.34,0,0,0,0,5.3V26.6A5.29,5.29,0,0,0,5.18,32H26.6a5.34,5.34,0,0,0,5.3-5.3V5.3A5.16,5.16,0,0,0,26.88,0ZM14.52,20.87a4.23,4.23,0,0,1-3.62,4.34,67.54,67.54,0,0,1-7,.11V6.7a66.17,66.17,0,0,1,6.9,0,4.25,4.25,0,0,1,3.69,4.36C14.61,14.33,14.6,17.61,14.52,20.87ZM27.24,25.5H18.31c-1,0-1.21-.32-.73-1.28L23.22,13.1l2.43-4.77H18.71c-1,0-1.35-.44-1-1.42a.71.71,0,0,1,.53-.32h9.25c.49,0,.63.25.55.64a4.45,4.45,0,0,1-.37,1L20,23.22c-.05.1-.08.2-.17.42.35,0,.64.06.94.06h6.46c.71,0,.85.28.84.9S28,25.51,27.24,25.5ZM12.71,11.19q.07,4.82,0,9.65V21a2.82,2.82,0,0,1-2.93,2.71H6.43c-.57,0-.71-.21-.71-.75V16c0-2.27,0-4.55,0-6.81,0-.59.12-.84.79-.84H9.91A2.82,2.82,0,0,1,12.71,11.19Z"/></svg>