<?xml version="1.0" encoding="utf-8"?>
<!-- Generator: Adobe Illustrator 24.1.1, SVG Export Plug-In . SVG Version: 6.00 Build 0)  -->
<svg version="1.1" id="Layer_1" xmlns="http://www.w3.org/2000/svg" xmlns:xlink="http://www.w3.org/1999/xlink" x="0px" y="0px"
	 viewBox="0 0 32 32" style="enable-background:new 0 0 32 32;" xml:space="preserve">
<style type="text/css">
	.st0{fill:#43597B;}
</style>
<path class="st0" d="M28,0H4C1.8,0,0,1.8,0,4v24c0,2.2,1.8,4,4,4h12.1V20.5h-3.8v-5h3.8V13c-0.1-3.7,2.7-6.7,6.4-6.9h3.6v5.6H23
	c-0.5-0.1-1,0.3-1.1,0.9c0,0.1,0,0.1,0,0.2v2.6h4.2v5h-4.2V32H28c2.2,0,4-1.8,4-4V4C32,1.8,30.2,0,28,0z"/>
</svg>
