<?xml version="1.0" encoding="utf-8"?>
<!-- Generator: Adobe Illustrator 24.1.1, SVG Export Plug-In . SVG Version: 6.00 Build 0)  -->
<svg version="1.1" id="Layer_1" xmlns="http://www.w3.org/2000/svg" xmlns:xlink="http://www.w3.org/1999/xlink" x="0px" y="0px"
	 viewBox="0 0 32 32" style="enable-background:new 0 0 32 32;" xml:space="preserve">
<style type="text/css">
	.st0{fill:#43597B;}
</style>
<path class="st0" d="M25.7,16c0,5.4-4.3,9.7-9.7,9.7S6.3,21.4,6.3,16c0-0.6,0.1-1.3,0.2-1.9H0V27c0,2.8,2.2,5,5,5h22
	c2.8,0,5-2.2,5-5V14.1h-6.5C25.6,14.7,25.7,15.4,25.7,16z M27,0H5C2.2,0,0,2.2,0,5v5.4h8.1C11.2,6,17.2,5,21.5,8c0,0,0,0,0.1,0.1
	c0.9,0.6,1.7,1.4,2.3,2.3H32V5C32,2.2,29.8,0,27,0z M29.5,6.2c0,0.5-0.4,0.9-0.9,0.9h-2.7c-0.5,0-0.9-0.4-0.9-0.9V3.5
	c0-0.5,0.4-0.9,0.9-0.9h2.7c0.5,0,0.9,0.4,0.9,0.9V6.2z M22,16c0-3.3-2.7-6-6-6s-6,2.7-6,6s2.7,6,6,6S22,19.3,22,16z"/>
</svg>
