<?xml version="1.0" encoding="utf-8"?>
<!-- Generator: Adobe Illustrator 24.1.1, SVG Export Plug-In . SVG Version: 6.00 Build 0)  -->
<svg version="1.1" id="Layer_1" xmlns="http://www.w3.org/2000/svg" xmlns:xlink="http://www.w3.org/1999/xlink" x="0px" y="0px"
	 viewBox="0 0 32 32" style="enable-background:new 0 0 32 32;" xml:space="preserve">
<style type="text/css">
	.st0{fill:#43597B;}
</style>
<path class="st0" d="M26.7,0H5.3C2.4,0,0,2.4,0,5.3v21.3c0,3,2.3,5.4,5.3,5.4h21.3c2.9,0,5.3-2.4,5.3-5.3V5.3
	C32,2.4,29.7,0.1,26.8,0C26.8,0,26.7,0,26.7,0z M26.2,10.7v0.7c0,7.1-5.3,15.2-15,15.2c-2.9,0-5.7-0.8-8.1-2.4
	c2.8,0.4,5.7-0.4,7.9-2.2c-2.2-0.1-4.2-1.6-4.9-3.7c0.8,0.2,1.6,0.1,2.4-0.1c-2.5-0.5-4.3-2.8-4.2-5.3v-0.1c0.7,0.4,1.6,0.6,2.4,0.7
	c-2.3-1.6-3-4.7-1.6-7.2c2.6,3.3,6.6,5.4,10.8,5.6c-0.1-0.4-0.1-0.8-0.1-1.2c0-2.9,2.3-5.3,5.2-5.4l0,0c1.5,0,2.9,0.6,3.8,1.7
	c1.2-0.2,2.3-0.7,3.3-1.3c-0.4,1.2-1.2,2.3-2.3,3c1-0.1,2-0.4,3-0.8C28.1,9,27.2,9.9,26.2,10.7z"/>
</svg>
