<?xml version="1.0" encoding="utf-8"?>
<!-- Generator: Adobe Illustrator 24.1.1, SVG Export Plug-In . SVG Version: 6.00 Build 0)  -->
<svg version="1.1" id="Layer_1" xmlns="http://www.w3.org/2000/svg" xmlns:xlink="http://www.w3.org/1999/xlink" x="0px" y="0px"
	 viewBox="0 0 31.9 32" style="enable-background:new 0 0 31.9 32;" xml:space="preserve">
<style type="text/css">
	.st0{fill:#43597B;}
</style>
<path class="st0" d="M12.7,0h-2.3L9,4.7L7.6,0H5.3c0.4,1.1,0.8,2.2,1.3,3.3c0.5,1.2,1,2.5,1.3,3.8V12h2.2V7.1L12.7,0z M18.5,9.1V6
	c0.1-0.8-0.1-1.5-0.6-2.1c-1.3-1.2-3.3-1.2-4.6,0c-0.5,0.6-0.7,1.4-0.6,2.2v3.1c-0.1,0.8,0.1,1.5,0.6,2.1c0.6,0.6,1.4,1,2.3,0.9
	c0.9,0,1.7-0.3,2.3-0.9C18.2,10.6,18.4,9.9,18.5,9.1z M16.4,9.4c0,0.8-0.4,1.2-1,1.2s-1-0.4-1-1.2V5.6c0-0.8,0.4-1.2,1-1.2
	s1,0.4,1,1.2V9.4z M25.6,12V3h-1.9v6.9c-0.5,0.5-0.8,0.8-1.2,0.8s-0.4-0.1-0.5-0.4V3h-2v7c0,0.4,0,0.9,0.1,1.3
	c0.2,0.4,0.7,0.7,1.2,0.7c0.9,0,1.7-0.4,2.3-1v1H25.6z"/>
<path class="st0" d="M31.3,16.5c-0.6-1.5-1.9-2.5-3.5-2.6c-4-0.3-7.9-0.4-11.9-0.4c-4-0.1-7.9,0.1-11.9,0.4C2.4,14,1.1,15,0.5,16.5
	C0.2,18.6,0,20.7,0,22.8C-0.1,24.9,0.1,27,0.6,29c0.6,1.5,1.9,2.5,3.5,2.6C8.1,31.9,12,32,16,32c4,0.1,7.9-0.1,11.9-0.4
	c1.6-0.1,2.9-1.1,3.5-2.6c0.4-2.1,0.6-4.2,0.6-6.3C32,20.6,31.7,18.5,31.3,16.5z M9.1,18.3H6.9v10.2H4.7V18.3H2.5v-1.7h6.6V18.3z
	 M15,28.5h-1.9v-1c-0.6,0.6-1.4,1-2.2,1.1c-0.5,0-1-0.2-1.2-0.7c-0.1-0.4-0.2-0.9-0.1-1.3v-7h1.9v7.1c0,0.3,0.2,0.4,0.5,0.4
	c0.5-0.1,0.9-0.4,1.2-0.8v-6.7h1.9L15,28.5L15,28.5z M22.3,25.9c0,0.6,0,1.2-0.2,1.8c-0.2,0.7-0.9,1.1-1.6,1c-0.8,0-1.5-0.4-1.9-1
	v0.9h-1.9V16.7h1.9v3.9c0.5-0.6,1.2-0.9,1.9-1c0.7,0,1.3,0.4,1.6,1c0.1,0.6,0.2,1.2,0.2,1.8L22.3,25.9z M29.5,24.4h-3.8V26
	c0,0.8,0.4,1.2,1,1.2s0.8-0.3,0.8-0.6v-1.1h1.9v1.2c0,0.4-0.2,0.8-0.5,1c-0.6,0.6-1.4,1-2.3,1c-0.9,0.1-1.7-0.3-2.3-0.9
	c-0.5-0.6-0.7-1.3-0.6-2.1v-3.1c-0.1-0.8,0.1-1.5,0.6-2.1c0.6-0.6,1.4-0.9,2.3-0.9c0.9,0,1.7,0.3,2.3,0.9c0.4,0.6,0.7,1.4,0.6,2.1
	V24.4z"/>
<path class="st0" d="M19.4,21c-0.4,0-0.7,0.2-1,0.4v5.4c0.3,0.3,0.6,0.4,1,0.4c0.6,0,0.8-0.4,0.8-1.2v-3.8C20.4,21.4,20,21,19.4,21z
	"/>
<path class="st0" d="M26.6,21c-0.6,0-1,0.4-1,1.2V23h1.9v-0.8C27.6,21.4,27.2,21,26.6,21z"/>
</svg>
